<svg width="30" height="30" viewBox="0 0 30 30" fill="none" xmlns="http://www.w3.org/2000/svg">
<path d="M14.6667 0C22.7672 0 29.3335 6.5663 29.3335 14.6667C29.3335 22.7672 22.7672 29.3335 14.6667 29.3335C6.5663 29.3335 0 22.7672 0 14.6667C0 6.5663 6.5663 0 14.6667 0ZM14.6667 7.33337C14.4009 7.33339 14.1441 7.42965 13.9438 7.60437C13.7434 7.77908 13.6132 8.02043 13.577 8.28378L13.5667 8.43338V13.5667H8.43338C8.15468 13.5668 7.8864 13.6727 7.68275 13.863C7.4791 14.0532 7.35527 14.3137 7.33627 14.5918C7.31727 14.8698 7.40453 15.1447 7.58041 15.3609C7.75629 15.5771 8.00768 15.7185 8.28378 15.7565L8.43338 15.7668H13.5667V20.9001C13.5668 21.1788 13.6727 21.4471 13.863 21.6507C14.0532 21.8544 14.3137 21.9782 14.5918 21.9972C14.8698 22.0162 15.1447 21.929 15.3609 21.7531C15.5771 21.5772 15.7185 21.3258 15.7565 21.0497L15.7668 20.9001V15.7668H20.9001C21.1788 15.7667 21.4471 15.6608 21.6507 15.4705C21.8544 15.2803 21.9782 15.0198 21.9972 14.7417C22.0162 14.4637 21.929 14.1888 21.7531 13.9726C21.5772 13.7564 21.3258 13.615 21.0497 13.577L20.9001 13.5667H15.7668V8.43338C15.7668 8.14164 15.6509 7.86185 15.4446 7.65556C15.2383 7.44927 14.9585 7.33337 14.6667 7.33337Z" fill="#393B3D"/>
</svg>
