<svg width="24" height="24" viewBox="0 0 24 24" fill="none" xmlns="http://www.w3.org/2000/svg">
<path d="M12 12.9999C13.6569 12.9999 15 11.6567 15 9.99988C15 8.34302 13.6569 6.99988 12 6.99988C10.3431 6.99988 9 8.34302 9 9.99988C9 11.6567 10.3431 12.9999 12 12.9999Z" stroke="#1A48E9" stroke-width="2" stroke-linecap="round" stroke-linejoin="round"/>
<path d="M11.9995 1.99994C9.87778 1.99994 7.84295 2.84279 6.34266 4.34308C4.84237 5.84338 3.99951 7.87821 3.99951 9.99994C3.99951 11.8919 4.40151 13.1299 5.49951 14.4999L11.9995 21.9999L18.4995 14.4999C19.5975 13.1299 19.9995 11.8919 19.9995 9.99994C19.9995 7.87821 19.1567 5.84338 17.6564 4.34308C16.1561 2.84279 14.1212 1.99994 11.9995 1.99994V1.99994Z" stroke="#1A48E9" stroke-width="2" stroke-linecap="round" stroke-linejoin="round"/>
</svg>
