<svg width="24" height="24" viewBox="0 0 24 24" fill="none" xmlns="http://www.w3.org/2000/svg">
<path d="M9 11C6.7912 11 5 8.57075 5 6.5V5.75C5 3.67925 6.7912 2 9 2C11.2088 2 13 3.67925 13 5.75V6.5C13 8.57075 11.2088 11 9 11Z" fill="#1A48E9"/>
<path d="M12.3108 19.997C12.3108 19.197 12.6048 18.445 13.1374 17.877L17 13.78C16.7285 13.527 16.4147 13.321 16.0565 13.193C14.506 12.638 12.1449 12 9.48306 12C6.82127 12 4.46015 12.638 2.90963 13.193C1.76348 13.604 1 14.749 1 16.032V20H12.3108V19.997Z" fill="#1A48E9"/>
<path d="M20.083 13.4998L14.293 19.2898C14.105 19.4778 14 19.7318 14 19.9968V21.9968H16C16.265 21.9968 16.519 21.8918 16.707 21.7038L22.497 15.9138C23.164 15.2468 23.164 14.1668 22.497 13.4998C21.83 12.8328 20.75 12.8328 20.083 13.4998Z" fill="#1A48E9"/>
</svg>
