<svg width="32" height="32" viewBox="0 0 32 32" fill="none" xmlns="http://www.w3.org/2000/svg">
<path d="M15.9992 28.0001C21.9639 28.0001 26.7992 23.1647 26.7992 17.2001C26.7992 11.2354 21.9639 6.40005 15.9992 6.40005C10.0345 6.40005 5.19922 11.2354 5.19922 17.2001C5.19922 23.1647 10.0345 28.0001 15.9992 28.0001Z" stroke="#1A9AFF" stroke-width="2.4" stroke-linecap="round" stroke-linejoin="round"/>
<path d="M16 6.4V4M20.2 13L16 17.2L20.2 13ZM24.4 24.4L25.6 28L24.4 24.4ZM7.6 24.4L6.4 28L7.6 24.4ZM4 7.6L7.6 4L4 7.6ZM24.4 4L28 7.6L24.4 4Z" stroke="#1A9AFF" stroke-width="2.4" stroke-linecap="round" stroke-linejoin="round"/>
</svg>
