<svg width="18" height="32" viewBox="0 0 18 32" fill="none" xmlns="http://www.w3.org/2000/svg">
<path d="M0.644898 0.416638C0.405036 0.662207 0.270752 0.991863 0.270752 1.33514C0.270752 1.67841 0.405036 2.00807 0.644898 2.25364L14.0456 16.0009L0.644898 29.7454C0.405036 29.991 0.270752 30.3206 0.270752 30.6639C0.270752 31.0072 0.405036 31.3368 0.644898 31.5824C0.761487 31.7021 0.900884 31.7973 1.05486 31.8623C1.20884 31.9273 1.37427 31.9608 1.5414 31.9608C1.70853 31.9608 1.87396 31.9273 2.02794 31.8623C2.18191 31.7973 2.32131 31.7021 2.4379 31.5824L16.6884 16.9606C16.9387 16.7039 17.0788 16.3595 17.0788 16.0009C17.0788 15.6423 16.9387 15.2979 16.6884 15.0411L2.4379 0.419389C2.32131 0.299644 2.18191 0.20447 2.02794 0.139483C1.87396 0.0744969 1.70853 0.0410156 1.5414 0.0410156C1.37427 0.0410156 1.20884 0.0744969 1.05486 0.139483C0.900884 0.20447 0.761487 0.299644 0.644898 0.419389V0.416638Z" fill="#E0E0E0"/>
</svg>
