<svg width="14" height="8" viewBox="0 0 14 8" fill="none" xmlns="http://www.w3.org/2000/svg">
<path d="M1.5987 4.00033C1.5987 2.86033 2.52536 1.93366 3.66536 1.93366H6.33203V0.666992H3.66536C1.82536 0.666992 0.332031 2.16033 0.332031 4.00033C0.332031 5.84033 1.82536 7.33366 3.66536 7.33366H6.33203V6.06699H3.66536C2.52536 6.06699 1.5987 5.14033 1.5987 4.00033ZM4.33203 4.66699H9.66537V3.33366H4.33203V4.66699ZM10.332 0.666992H7.66536V1.93366H10.332C11.472 1.93366 12.3987 2.86033 12.3987 4.00033C12.3987 5.14033 11.472 6.06699 10.332 6.06699H7.66536V7.33366H10.332C12.172 7.33366 13.6654 5.84033 13.6654 4.00033C13.6654 2.16033 12.172 0.666992 10.332 0.666992Z" fill="#1A48E9"/>
</svg>
