<svg width="48" height="38" viewBox="0 0 48 38" fill="none" xmlns="http://www.w3.org/2000/svg">
<path d="M46.403 5.99531C45.4449 4.9915 44.1217 4.39835 42.616 4.39835H35.0418V4.30709C35.0418 3.16641 34.5856 2.07135 33.8099 1.34131C33.0342 0.565649 31.9848 0.109375 30.8441 0.109375H17.1559C15.9696 0.109375 14.9202 0.565649 14.1445 1.34131C13.3688 2.11698 12.9125 3.16641 12.9125 4.30709V4.39835H5.38403C3.87833 4.39835 2.55513 4.9915 1.59696 5.99531C0.638783 6.95348 0 8.3223 0 9.78238V32.5048C0 34.0105 0.593156 35.3337 1.59696 36.2919C2.55513 37.2501 3.92395 37.8888 5.38403 37.8888H42.616C44.1217 37.8888 45.4449 37.2957 46.403 36.2919C47.3612 35.3337 48 33.9649 48 32.5048V9.78238C48 8.27668 47.4068 6.95348 46.403 5.99531ZM45.6274 32.5048H45.5817C45.5817 33.3261 45.2624 34.0561 44.7148 34.6037C44.1673 35.1512 43.4373 35.4706 42.616 35.4706H5.38403C4.56274 35.4706 3.8327 35.1512 3.28517 34.6037C2.73764 34.0561 2.41825 33.3261 2.41825 32.5048V9.78238C2.41825 8.96109 2.73764 8.23105 3.28517 7.68352C3.8327 7.13599 4.56274 6.8166 5.38403 6.8166H14.1901C14.8745 6.8166 15.4221 6.26907 15.4221 5.58466V4.26147C15.4221 3.75957 15.6046 3.30329 15.924 2.9839C16.2433 2.66451 16.6996 2.482 17.2015 2.482H30.8441C31.346 2.482 31.8023 2.66451 32.1217 2.9839C32.4411 3.30329 32.6236 3.75957 32.6236 4.26147V5.58466C32.6236 6.26907 33.1711 6.8166 33.8555 6.8166H42.6616C43.4829 6.8166 44.2129 7.13599 44.7605 7.68352C45.308 8.23105 45.6274 8.96109 45.6274 9.78238V32.5048Z" fill="#1A48E9"/>
<path d="M23.9997 9.91992C20.8971 9.91992 18.0682 11.1975 16.0606 13.2051C14.0073 15.2583 12.7754 18.0416 12.7754 21.1443C12.7754 24.2469 14.053 27.0758 16.0606 29.0834C18.1138 31.1367 20.8971 32.3686 23.9997 32.3686C27.1024 32.3686 29.9313 31.091 31.9389 29.0834C33.9921 27.0302 35.2241 24.2469 35.2241 21.1443C35.2241 18.0416 33.9465 15.2127 31.9389 13.2051C29.9313 11.1975 27.1024 9.91992 23.9997 9.91992ZM30.205 27.3952C28.6081 28.9465 26.418 29.9503 23.9997 29.9503C21.5815 29.9503 19.3914 28.9465 17.7944 27.3952C16.1974 25.7982 15.2393 23.6081 15.2393 21.1899C15.2393 18.7716 16.2431 16.5815 17.7944 14.9846C19.3914 13.3876 21.5815 12.4294 23.9997 12.4294C26.418 12.4294 28.6081 13.4332 30.205 14.9846C31.802 16.5815 32.7602 18.7716 32.7602 21.1899C32.8058 23.6081 31.802 25.7982 30.205 27.3952Z" fill="#1A48E9"/>
<path d="M40.2436 14.3445C41.4783 14.3445 42.4793 13.3436 42.4793 12.1088C42.4793 10.874 41.4783 9.87305 40.2436 9.87305C39.0088 9.87305 38.0078 10.874 38.0078 12.1088C38.0078 13.3436 39.0088 14.3445 40.2436 14.3445Z" fill="#1A48E9"/>
</svg>
