<svg width="16" height="12" viewBox="0 0 16 12" fill="none" xmlns="http://www.w3.org/2000/svg">
<path d="M6.59935 0.827985C7.05824 0.720572 7.52806 0.666878 7.99935 0.667986C12.666 0.667986 15.3327 6.00132 15.3327 6.00132C14.928 6.75839 14.4454 7.47114 13.8927 8.12799M9.41268 7.41465C9.22958 7.61115 9.00878 7.76876 8.76345 7.87807C8.51812 7.98738 8.25328 8.04616 7.98474 8.0509C7.7162 8.05563 7.44946 8.00624 7.20042 7.90565C6.95139 7.80506 6.72516 7.65534 6.53525 7.46542C6.34533 7.2755 6.19561 7.04928 6.09502 6.80025C5.99443 6.55121 5.94503 6.28447 5.94977 6.01593C5.95451 5.74738 6.01329 5.48255 6.1226 5.23722C6.23191 4.99189 6.38952 4.77108 6.58602 4.58799M11.9593 9.96132C10.8197 10.83 9.43209 11.3112 7.99935 11.3347C3.33268 11.3347 0.666016 6.00132 0.666016 6.00132C1.49528 4.45592 2.64544 3.10572 4.03935 2.04132L11.9593 9.96132Z" stroke="#434547" stroke-linecap="round" stroke-linejoin="round"/>
</svg>
