<svg width="24" height="24" viewBox="0 0 24 24" fill="none" xmlns="http://www.w3.org/2000/svg">
<path d="M11.4063 2.00125C11.2542 2.00478 11.0998 2.01518 10.9433 2.03302C9.2014 2.23032 7.78652 3.497 7.45416 5.15683C7.37514 5.55144 7.37035 5.84685 7.42252 7.01861L7.43709 7.35042L7.23839 7.35061C6.9879 7.35061 6.85556 7.38777 6.73241 7.49255C6.5385 7.6579 6.49036 7.91726 6.55673 8.43264C6.66567 9.27704 6.89582 9.80169 7.22955 9.96668C7.31739 10.0102 7.48272 10.0252 7.58131 9.99901C7.6329 9.98526 7.6375 9.9912 7.68392 10.1322C7.87993 10.7286 8.24818 11.4323 8.61412 11.9087C9.29902 12.8005 10.2396 13.4225 11.2145 13.628C11.4942 13.6869 11.7826 13.651 12.2161 13.5042C12.4823 13.4141 12.8983 13.212 13.1436 13.0537C14.0975 12.4382 14.8393 11.4511 15.2718 10.2223C15.3146 10.101 15.3579 10.002 15.3685 10.0018C15.379 10.0016 15.428 10.007 15.4774 10.0143C15.9005 10.0757 16.2533 9.56316 16.3973 8.67736C16.4903 8.10586 16.484 7.82906 16.3725 7.63063C16.2588 7.42813 16.0904 7.35084 15.7641 7.35084H15.5666L15.566 7.24364C15.5658 7.18475 15.5773 6.83268 15.5913 6.46183C15.6199 5.7038 15.6059 5.45339 15.5114 5.04427C15.3293 4.25709 14.841 3.46177 14.2353 2.96552C13.4262 2.30247 12.4708 1.97713 11.4063 2.00125ZM14.5238 14.3562L14.4761 14.5123C14.2566 15.2326 12.756 19.5081 12.7038 19.5613C12.6958 19.5695 12.6488 18.7318 12.5997 17.6996L12.5105 15.8228L12.8778 15.1179C12.8851 15.104 13.3694 14.5182 13.3101 14.4535C13.2662 14.4056 13.1498 14.4905 13.0416 14.5393C12.5132 14.7712 12.0088 14.9607 11.3837 14.9373C10.8142 14.9159 10.352 14.7344 9.94556 14.5373C9.85005 14.4897 9.78426 14.434 9.74801 14.463C9.68913 14.51 9.98833 14.9022 10.1331 15.1352L10.4918 15.8256L10.4053 17.6249C10.3577 18.6146 10.3192 19.4607 10.3194 19.5048C10.3196 19.5518 10.3119 19.5775 10.3012 19.5662C10.2317 19.493 8.77944 15.3617 8.53527 14.5428L8.48003 14.357L8.22494 14.4439C7.45775 14.7062 6.73199 14.974 6.13164 15.2164C5.92585 15.2994 5.41625 15.5033 4.9991 15.669C3.73574 16.171 3.60587 16.236 3.36116 16.492C3.2035 16.657 3.10664 16.8179 3.03146 17.0371C2.56002 18.4127 2.07057 19.9759 2.01533 20.2826C1.9833 20.4608 2.00286 20.7314 2.06098 20.9152C2.23609 21.4687 2.69678 21.8727 3.27086 21.9759C3.39035 21.9974 4.96251 22.0021 11.5634 21.9993C19.2697 21.9961 19.7146 21.9937 19.8344 21.9597C20.0214 21.9066 20.2811 21.7767 20.424 21.6647C20.8356 21.3422 21.0632 20.7852 20.9846 20.294C20.9426 20.0322 20.6342 19.033 20.0973 17.4191C20.016 17.1746 19.9347 16.9381 19.9163 16.8932C19.863 16.762 19.7095 16.5537 19.5758 16.4302C19.3137 16.1879 19.287 16.1758 16.8993 15.2305C16.1467 14.9325 16.0606 14.9006 15.2297 14.6063L14.5238 14.3562ZM14.9389 17.5335H17.8216V18.8517L14.9389 18.8519V17.5335Z" fill="#1A48E9"/>
</svg>
