<svg width="32" height="32" viewBox="0 0 32 32" fill="none" xmlns="http://www.w3.org/2000/svg">
<path fill-rule="evenodd" clip-rule="evenodd" d="M2 16C2 19.713 3.475 23.274 6.1005 25.8995C8.72601 28.525 12.287 30 16 30C19.713 30 23.274 28.525 25.8995 25.8995C28.525 23.274 30 19.713 30 16C30 12.287 28.525 8.72601 25.8995 6.1005C23.274 3.475 19.713 2 16 2C12.287 2 8.72601 3.475 6.1005 6.1005C3.475 8.72601 2 12.287 2 16ZM32 16C32 20.2435 30.3143 24.3131 27.3137 27.3137C24.3131 30.3143 20.2435 32 16 32C11.7565 32 7.68687 30.3143 4.68629 27.3137C1.68571 24.3131 0 20.2435 0 16C0 11.7565 1.68571 7.68687 4.68629 4.68629C7.68687 1.68571 11.7565 0 16 0C20.2435 0 24.3131 1.68571 27.3137 4.68629C30.3143 7.68687 32 11.7565 32 16ZM11.708 10.292C11.5202 10.1042 11.2656 9.99874 11 9.99874C10.7344 9.99874 10.4798 10.1042 10.292 10.292C10.1042 10.4798 9.99874 10.7344 9.99874 11C9.99874 11.2656 10.1042 11.5202 10.292 11.708L18.486 19.9H12.95C12.6848 19.9 12.4304 20.0054 12.2429 20.1929C12.0554 20.3804 11.95 20.6348 11.95 20.9C11.95 21.1652 12.0554 21.4196 12.2429 21.6071C12.4304 21.7946 12.6848 21.9 12.95 21.9H20.9C21.1652 21.9 21.4196 21.7946 21.6071 21.6071C21.7946 21.4196 21.9 21.1652 21.9 20.9V12.95C21.9 12.6848 21.7946 12.4304 21.6071 12.2429C21.4196 12.0554 21.1652 11.95 20.9 11.95C20.6348 11.95 20.3804 12.0554 20.1929 12.2429C20.0054 12.4304 19.9 12.6848 19.9 12.95V18.486L11.708 10.292Z" fill="#219653"/>
</svg>
