<svg width="32" height="32" viewBox="0 0 32 32" fill="none" xmlns="http://www.w3.org/2000/svg">
<path fill-rule="evenodd" clip-rule="evenodd" d="M30 16C30 12.287 28.525 8.72601 25.8995 6.10051C23.274 3.475 19.713 2 16 2C12.287 2 8.72602 3.47499 6.10051 6.1005C3.475 8.72601 2 12.287 2 16C2 19.713 3.475 23.274 6.10051 25.8995C8.72602 28.525 12.287 30 16 30C19.713 30 23.274 28.525 25.8995 25.8995C28.525 23.274 30 19.713 30 16V16ZM1.39876e-06 16C1.76974e-06 11.7565 1.68571 7.68687 4.68629 4.68629C7.68688 1.68571 11.7565 -1.76974e-06 16 -1.39876e-06C20.2435 -1.02779e-06 24.3131 1.68571 27.3137 4.68629C30.3143 7.68687 32 11.7565 32 16C32 20.2435 30.3143 24.3131 27.3137 27.3137C24.3131 30.3143 20.2435 32 16 32C11.7565 32 7.68687 30.3143 4.68629 27.3137C1.68571 24.3131 1.02779e-06 20.2435 1.39876e-06 16V16ZM20.292 21.708C20.4798 21.8958 20.7344 22.0013 21 22.0013C21.2656 22.0013 21.5202 21.8958 21.708 21.708C21.8958 21.5202 22.0013 21.2656 22.0013 21C22.0013 20.7344 21.8958 20.4798 21.708 20.292L13.514 12.1L19.05 12.1C19.3152 12.1 19.5696 11.9946 19.7571 11.8071C19.9446 11.6196 20.05 11.3652 20.05 11.1C20.05 10.8348 19.9446 10.5804 19.7571 10.3929C19.5696 10.2054 19.3152 10.1 19.05 10.1L11.1 10.1C10.8348 10.1 10.5804 10.2054 10.3929 10.3929C10.2054 10.5804 10.1 10.8348 10.1 11.1L10.1 19.05C10.1 19.3152 10.2054 19.5696 10.3929 19.7571C10.5804 19.9446 10.8348 20.05 11.1 20.05C11.3652 20.05 11.6196 19.9446 11.8071 19.7571C11.9946 19.5696 12.1 19.3152 12.1 19.05L12.1 13.514L20.292 21.708Z" fill="#EB5757"/>
</svg>
