<svg width="22" height="28" viewBox="0 0 22 28" fill="none" xmlns="http://www.w3.org/2000/svg">
<path d="M7.0013 14H15.0013H7.0013ZM7.0013 19.3333H15.0013H7.0013ZM17.668 26H4.33464C3.62739 26 2.94911 25.719 2.44902 25.219C1.94892 24.7189 1.66797 24.0406 1.66797 23.3333V4.66667C1.66797 3.95942 1.94892 3.28115 2.44902 2.78105C2.94911 2.28095 3.62739 2 4.33464 2H11.7826C12.1362 2.00008 12.4753 2.1406 12.7253 2.39067L19.944 9.60933C20.194 9.85932 20.3346 10.1984 20.3346 10.552V23.3333C20.3346 24.0406 20.0537 24.7189 19.5536 25.219C19.0535 25.719 18.3752 26 17.668 26Z" stroke="#FFAF37" stroke-width="2.66667" stroke-linecap="round" stroke-linejoin="round"/>
</svg>
