<svg width="16" height="16" viewBox="0 0 16 16" fill="none" xmlns="http://www.w3.org/2000/svg">
<path d="M11.3322 3.3337C11.4879 3.33339 11.6389 3.38764 11.7588 3.48703C11.8263 3.543 11.8821 3.61173 11.923 3.6893C11.9639 3.76686 11.9891 3.85173 11.9972 3.93905C12.0052 4.02637 11.996 4.11442 11.97 4.19815C11.9439 4.28189 11.9016 4.35967 11.8455 4.42703L8.85883 8.00036L11.7388 11.5804C11.7942 11.6486 11.8356 11.727 11.8605 11.8112C11.8855 11.8955 11.8935 11.9838 11.8842 12.0712C11.8749 12.1585 11.8485 12.2432 11.8064 12.3203C11.7642 12.3973 11.7073 12.4654 11.6388 12.5204C11.5698 12.5811 11.4891 12.6268 11.4016 12.6548C11.3141 12.6828 11.2217 12.6924 11.1303 12.683C11.0389 12.6736 10.9504 12.6455 10.8705 12.6003C10.7905 12.5551 10.7207 12.4938 10.6655 12.4204L7.44549 8.42036C7.34744 8.30108 7.29383 8.15145 7.29383 7.99703C7.29383 7.84261 7.34744 7.69299 7.44549 7.5737L10.7788 3.5737C10.8457 3.49302 10.9307 3.42924 11.0268 3.38754C11.1229 3.34585 11.2276 3.3274 11.3322 3.3337Z" fill="#393B3D"/>
<path d="M7.33216 3.3337C7.48793 3.33339 7.63889 3.38764 7.75883 3.48703C7.82633 3.543 7.88213 3.61173 7.92303 3.6893C7.96394 3.76686 7.98913 3.85173 7.99718 3.93905C8.00523 4.02637 7.99598 4.11442 7.96995 4.19815C7.94392 4.28189 7.90163 4.35966 7.84549 4.42703L4.85883 8.00036L7.73883 11.5804C7.7942 11.6486 7.83556 11.727 7.86051 11.8112C7.88547 11.8955 7.89353 11.9838 7.88424 12.0712C7.87494 12.1585 7.84848 12.2432 7.80636 12.3203C7.76425 12.3973 7.70731 12.4654 7.63883 12.5204C7.56985 12.5811 7.48907 12.6268 7.40156 12.6548C7.31406 12.6828 7.22171 12.6924 7.13031 12.683C7.03892 12.6736 6.95045 12.6455 6.87046 12.6003C6.79047 12.5551 6.72069 12.4938 6.66549 12.4204L3.44549 8.42036C3.34744 8.30108 3.29383 8.15145 3.29383 7.99703C3.29383 7.84261 3.34744 7.69299 3.44549 7.5737L6.77883 3.5737C6.8457 3.49302 6.93066 3.42924 7.0268 3.38754C7.12294 3.34585 7.22756 3.3274 7.33216 3.3337Z" fill="#393B3D"/>
</svg>
