<svg width="17" height="16" viewBox="0 0 17 16" fill="#1a48e9" xmlns="http://www.w3.org/2000/svg">
<path d="M15.3603 1.62737C14.4202 0.790875 12.896 0.790875 11.9558 1.62737L2.41187 10.1192C2.34646 10.1774 2.29924 10.2495 2.27458 10.3287L1.01952 14.3602C0.967906 14.5255 1.02036 14.7025 1.1566 14.8239C1.29306 14.9452 1.492 14.9918 1.67777 14.9461L6.2088 13.8292C6.29782 13.8073 6.3789 13.7653 6.44431 13.7071L15.988 5.21508C16.9267 4.37802 16.9267 3.02296 15.988 2.18591L15.3603 1.62737ZM3.57749 10.4286L11.3885 3.47849L13.9076 5.71988L6.09638 12.6699L3.57749 10.4286ZM3.07429 11.327L5.08686 13.1178L2.303 13.8041L3.07429 11.327ZM15.2316 4.54201L14.6642 5.04681L12.1449 2.80524L12.7125 2.30044C13.2347 1.8358 14.0814 1.8358 14.6036 2.30044L15.2316 2.85897C15.753 3.32417 15.753 4.077 15.2316 4.54201Z" fill="#1a48e9;
" stroke="white" stroke-width="0.2"/>
</svg>
