<svg width="81" height="80" viewBox="0 0 81 80" fill="none" xmlns="http://www.w3.org/2000/svg">
<g clip-path="url(#clip0_2413_155225)">
<path d="M67.1667 67.5H13.8334C10.627 67.5 8.00008 64.8731 8.00008 61.6667V18.3333C8.00008 15.1269 10.627 12.5 13.8334 12.5H67.1667C70.3732 12.5 73.0001 15.1269 73.0001 18.3333V61.6667C73.0001 64.8731 70.3732 67.5 67.1667 67.5Z" fill="white" stroke="#1A48E9" stroke-width="1.66667"/>
<path d="M58.8333 31.6667C61.5947 31.6667 63.8333 29.4281 63.8333 26.6667C63.8333 23.9052 61.5947 21.6667 58.8333 21.6667C56.0718 21.6667 53.8333 23.9052 53.8333 26.6667C53.8333 29.4281 56.0718 31.6667 58.8333 31.6667Z" fill="#1A48E9"/>
<path d="M33.8333 26.6667L15.5 53.3333H52.1667L33.8333 26.6667Z" fill="#1A48E9"/>
<path d="M52.1666 36.6667L38.8333 53.3333H65.4999L52.1666 36.6667Z" fill="#1A48E9"/>
<path d="M79.6667 63.3334C79.6667 72.0779 72.5779 79.1667 63.8334 79.1667C55.0889 79.1667 48.0001 72.0779 48.0001 63.3334C48.0001 54.5888 55.0889 47.5 63.8334 47.5C72.5779 47.5 79.6667 54.5888 79.6667 63.3334Z" fill="white" stroke="#1A48E9" stroke-width="1.66667"/>
<path d="M60.5 53.3333H67.1667V73.3333H60.5V53.3333Z" fill="#1A48E9"/>
<path d="M53.8333 60H73.8333V66.6667H53.8333V60Z" fill="#1A48E9"/>
</g>
<defs>
<clipPath id="clip0_2413_155225">
<rect width="80" height="80" fill="white" transform="translate(0.5)"/>
</clipPath>
</defs>
</svg>
