<svg width="40" height="30" viewBox="0 0 40 30" fill="none" xmlns="http://www.w3.org/2000/svg">
<path d="M20.833 3.5H36.25C38.2543 3.5 39.8913 5.07236 39.9948 7.05084L40 7.25V26.25C40 28.2543 38.4276 29.8913 36.4492 29.9948L36.25 30H3.75C1.74574 30 0.108726 28.4276 0.005198 26.4492L0 26.25V9.999L13.8036 10L14.0297 9.99319C15.0049 9.93437 15.9192 9.49682 16.5769 8.77425L16.724 8.60249L20.833 3.5ZM13.0607 0C13.8933 0 14.7 0.277034 15.3552 0.78393L15.5301 0.927837L17.974 3.066L14.7771 7.03416L14.6826 7.13875C14.4832 7.33599 14.223 7.46051 13.9443 7.49207L13.8036 7.5L0 7.499V3.75C0 1.74574 1.57236 0.108727 3.55084 0.00519848L3.75 0H13.0607Z" fill="#1A48E9"/>
</svg>
