<svg width="24" height="24" viewBox="0 0 24 24" fill="none" xmlns="http://www.w3.org/2000/svg">
<path fill-rule="evenodd" clip-rule="evenodd" d="M15.9575 12.7149C17.2652 13.6026 18.1816 14.8054 18.1816 16.409V19.2726H21.9998V16.409C21.9998 14.3281 18.5921 13.0967 15.9575 12.7149V12.7149Z" fill="#1A48E9"/>
<path d="M8.63654 11.6364C9.64919 11.6364 10.6204 11.2341 11.3364 10.518C12.0525 9.802 12.4547 8.83083 12.4547 7.81818C12.4547 6.80554 12.0525 5.83437 11.3364 5.11832C10.6204 4.40227 9.64919 4 8.63654 4C7.6239 4 6.65273 4.40227 5.93668 5.11832C5.22063 5.83437 4.81836 6.80554 4.81836 7.81818C4.81836 8.83083 5.22063 9.802 5.93668 10.518C6.65273 11.2341 7.6239 11.6364 8.63654 11.6364V11.6364Z" fill="#1A48E9"/>
<path fill-rule="evenodd" clip-rule="evenodd" d="M14.3638 11.6364C16.4733 11.6364 18.182 9.92773 18.182 7.81818C18.182 5.70864 16.4733 4 14.3638 4C13.9151 4 13.4951 4.09545 13.0942 4.22909C13.9156 5.24493 14.3638 6.51179 14.3638 7.81818C14.3638 9.12457 13.9156 10.3914 13.0942 11.4073C13.4951 11.5409 13.9151 11.6364 14.3638 11.6364Z" fill="#1A48E9"/>
<path fill-rule="evenodd" clip-rule="evenodd" d="M8.63636 12.5909C6.08773 12.5909 1 13.87 1 16.4091V19.2727H16.2727V16.4091C16.2727 13.87 11.185 12.5909 8.63636 12.5909Z" fill="#1A48E9"/>
</svg>
