<svg width="18" height="18" viewBox="0 0 18 18" fill="none" xmlns="http://www.w3.org/2000/svg">
<path d="M12.2115 8.04026C12.2638 8.09251 12.3054 8.15458 12.3338 8.22292C12.3621 8.29126 12.3767 8.36452 12.3767 8.43851C12.3767 8.51249 12.3621 8.58575 12.3338 8.65409C12.3054 8.72243 12.2638 8.7845 12.2115 8.83676L8.83646 12.2118C8.78421 12.2641 8.72214 12.3057 8.6538 12.3341C8.58546 12.3624 8.5122 12.377 8.43821 12.377C8.36422 12.377 8.29096 12.3624 8.22262 12.3341C8.15428 12.3057 8.09221 12.2641 8.03996 12.2118L6.35246 10.5243C6.30016 10.472 6.25868 10.4099 6.23037 10.3415C6.20207 10.2732 6.1875 10.2 6.1875 10.126C6.1875 10.052 6.20207 9.97881 6.23037 9.91047C6.25868 9.84214 6.30016 9.78005 6.35246 9.72776C6.45808 9.62213 6.60134 9.5628 6.75071 9.5628C6.82467 9.5628 6.89791 9.57736 6.96624 9.60567C7.03457 9.63397 7.09666 9.67546 7.14896 9.72776L8.43821 11.0181L11.415 8.04026C11.4672 7.98787 11.5293 7.94631 11.5976 7.91795C11.666 7.8896 11.7392 7.875 11.8132 7.875C11.8872 7.875 11.9605 7.8896 12.0288 7.91795C12.0971 7.94631 12.1592 7.98787 12.2115 8.04026Z" fill="#393B3D"/>
<path d="M3.9375 0C4.08668 0 4.22976 0.0592632 4.33525 0.164752C4.44074 0.270242 4.5 0.413316 4.5 0.5625V1.125H13.5V0.5625C13.5 0.413316 13.5593 0.270242 13.6648 0.164752C13.7702 0.0592632 13.9133 0 14.0625 0C14.2117 0 14.3548 0.0592632 14.4602 0.164752C14.5657 0.270242 14.625 0.413316 14.625 0.5625V1.125H15.75C16.3467 1.125 16.919 1.36205 17.341 1.78401C17.7629 2.20597 18 2.77826 18 3.375V15.75C18 16.3467 17.7629 16.919 17.341 17.341C16.919 17.7629 16.3467 18 15.75 18H2.25C1.65326 18 1.08097 17.7629 0.65901 17.341C0.237053 16.919 0 16.3467 0 15.75V3.375C0 2.77826 0.237053 2.20597 0.65901 1.78401C1.08097 1.36205 1.65326 1.125 2.25 1.125H3.375V0.5625C3.375 0.413316 3.43426 0.270242 3.53975 0.164752C3.64524 0.0592632 3.78832 0 3.9375 0V0ZM1.125 4.5V15.75C1.125 16.0484 1.24353 16.3345 1.4545 16.5455C1.66548 16.7565 1.95163 16.875 2.25 16.875H15.75C16.0484 16.875 16.3345 16.7565 16.5455 16.5455C16.7565 16.3345 16.875 16.0484 16.875 15.75V4.5H1.125Z" fill="#393B3D"/>
</svg>
