<svg width="32" height="32" viewBox="0 0 32 32" fill="none" xmlns="http://www.w3.org/2000/svg">
<path d="M16 30.6663C24.1002 30.6663 30.6666 24.0999 30.6666 15.9997C30.6666 7.89948 24.1002 1.33301 16 1.33301C7.89979 1.33301 1.33331 7.89948 1.33331 15.9997C1.33331 24.0999 7.89979 30.6663 16 30.6663ZM9.71427 18.0949C9.15857 18.0949 8.62564 17.8742 8.23271 17.4812C7.83978 17.0883 7.61903 16.5554 7.61903 15.9997C7.61903 15.444 7.83978 14.9111 8.23271 14.5181C8.62564 14.1252 9.15857 13.9044 9.71427 13.9044C10.27 13.9044 10.8029 14.1252 11.1958 14.5181C11.5888 14.9111 11.8095 15.444 11.8095 15.9997C11.8095 16.5554 11.5888 17.0883 11.1958 17.4812C10.8029 17.8742 10.27 18.0949 9.71427 18.0949ZM18.0952 15.9997C18.0952 16.5554 17.8745 17.0883 17.4815 17.4812C17.0886 17.8742 16.5557 18.0949 16 18.0949C15.4443 18.0949 14.9114 17.8742 14.5184 17.4812C14.1255 17.0883 13.9047 16.5554 13.9047 15.9997C13.9047 15.444 14.1255 14.9111 14.5184 14.5181C14.9114 14.1252 15.4443 13.9044 16 13.9044C16.5557 13.9044 17.0886 14.1252 17.4815 14.5181C17.8745 14.9111 18.0952 15.444 18.0952 15.9997ZM22.2857 18.0949C21.73 18.0949 21.1971 17.8742 20.8041 17.4812C20.4112 17.0883 20.1905 16.5554 20.1905 15.9997C20.1905 15.444 20.4112 14.9111 20.8041 14.5181C21.1971 14.1252 21.73 13.9044 22.2857 13.9044C22.8414 13.9044 23.3743 14.1252 23.7673 14.5181C24.1602 14.9111 24.3809 15.444 24.3809 15.9997C24.3809 16.5554 24.1602 17.0883 23.7673 17.4812C23.3743 17.8742 22.8414 18.0949 22.2857 18.0949Z" fill="#393B3D"/>
</svg>
