<svg width="25" height="32" viewBox="0 0 25 32" fill="none" xmlns="http://www.w3.org/2000/svg">
<path d="M24.3086 28V9L15.3086 0H4.30859C3.24773 0 2.23031 0.421427 1.48017 1.17157C0.730021 1.92172 0.308594 2.93913 0.308594 4V28C0.308594 29.0609 0.730021 30.0783 1.48017 30.8284C2.23031 31.5786 3.24773 32 4.30859 32H20.3086C21.3695 32 22.3869 31.5786 23.137 30.8284C23.8872 30.0783 24.3086 29.0609 24.3086 28ZM15.3086 6C15.3086 6.79565 15.6247 7.55871 16.1873 8.12132C16.7499 8.68393 17.5129 9 18.3086 9H22.3086V28C22.3086 28.5304 22.0979 29.0391 21.7228 29.4142C21.3477 29.7893 20.839 30 20.3086 30H4.30859C3.77816 30 3.26945 29.7893 2.89438 29.4142C2.51931 29.0391 2.30859 28.5304 2.30859 28V4C2.30859 3.46957 2.51931 2.96086 2.89438 2.58579C3.26945 2.21071 3.77816 2 4.30859 2H15.3086V6Z" fill="#E62614"/>
<path d="M5.51509 28.1733C5.12527 28.0174 4.81121 27.7163 4.63909 27.3333C4.24909 26.5573 4.37909 25.7813 4.79909 25.1293C5.19509 24.5153 5.85109 23.9933 6.59309 23.5553C7.53296 23.0223 8.52646 22.5899 9.55709 22.2653C10.3575 20.8265 11.0669 19.3389 11.6811 17.8113C11.3138 16.9769 11.0259 16.1097 10.8211 15.2213C10.6491 14.4213 10.5831 13.6293 10.7291 12.9493C10.8791 12.2413 11.2771 11.6053 12.0291 11.3033C12.4131 11.1493 12.8291 11.0633 13.2331 11.1493C13.4363 11.1926 13.6274 11.2805 13.7924 11.4068C13.9574 11.5331 14.0922 11.6945 14.1871 11.8793C14.3631 12.2073 14.4271 12.5913 14.4411 12.9553C14.4551 13.3313 14.4171 13.7473 14.3471 14.1833C14.1791 15.2033 13.8071 16.4513 13.3071 17.7713C13.8589 18.9514 14.5148 20.0798 15.2671 21.1433C16.1573 21.073 17.0526 21.1066 17.9351 21.2433C18.6631 21.3753 19.4031 21.6333 19.8551 22.1733C20.0951 22.4613 20.2411 22.8133 20.2551 23.2093C20.2691 23.5933 20.1611 23.9733 19.9791 24.3353C19.8214 24.6708 19.577 24.958 19.2711 25.1673C18.9687 25.3646 18.6117 25.4612 18.2511 25.4433C17.5891 25.4153 16.9431 25.0513 16.3851 24.6093C15.7066 24.0483 15.0952 23.4108 14.5631 22.7093C13.2106 22.8628 11.8741 23.1345 10.5691 23.5213C9.97144 24.5812 9.28923 25.5912 8.52909 26.5413C7.94509 27.2413 7.31109 27.8533 6.67509 28.1153C6.30966 28.2806 5.89518 28.3014 5.51509 28.1733ZM8.27309 24.3713C7.94109 24.5233 7.63309 24.6833 7.35509 24.8473C6.69909 25.2353 6.27309 25.6133 6.06109 25.9413C5.87309 26.2313 5.86909 26.4413 5.98109 26.6633C6.00109 26.7073 6.02109 26.7353 6.03309 26.7513C6.05695 26.745 6.08034 26.7369 6.10309 26.7273C6.37709 26.6153 6.81309 26.2573 7.37309 25.5833C7.69158 25.1934 7.9919 24.789 8.27309 24.3713ZM11.5531 21.7113C12.2209 21.5555 12.8948 21.4267 13.5731 21.3253C13.2089 20.768 12.8686 20.1955 12.5531 19.6093C12.2394 20.3185 11.9059 21.0188 11.5531 21.7093V21.7113ZM16.4451 22.6113C16.7451 22.9373 17.0371 23.2113 17.3151 23.4313C17.7951 23.8113 18.1291 23.9373 18.3111 23.9433C18.3598 23.9497 18.4092 23.9391 18.4511 23.9133C18.5343 23.8476 18.5991 23.7615 18.6391 23.6633C18.7102 23.5415 18.7507 23.4042 18.7571 23.2633C18.7559 23.2163 18.7374 23.1715 18.7051 23.1373C18.6011 23.0133 18.3051 22.8333 17.6691 22.7193C17.2645 22.6517 16.8552 22.6162 16.4451 22.6133V22.6113ZM12.4651 15.5993C12.6334 15.0564 12.767 14.5033 12.8651 13.9433C12.9271 13.5673 12.9511 13.2573 12.9411 13.0133C12.9416 12.8787 12.92 12.7449 12.8771 12.6173C12.777 12.6297 12.6793 12.6567 12.5871 12.6973C12.4131 12.7673 12.2711 12.9093 12.1951 13.2633C12.1151 13.6473 12.1351 14.2013 12.2871 14.9073C12.3351 15.1293 12.3951 15.3613 12.4671 15.5993H12.4651Z" fill="#E62614"/>
</svg>
