<svg width="18" height="18" viewBox="0 0 18 18" fill="none" xmlns="http://www.w3.org/2000/svg">
<path d="M8.99935 0.667969C13.6018 0.667969 17.3327 4.3988 17.3327 9.0013C17.3327 13.6038 13.6018 17.3346 8.99935 17.3346C4.39685 17.3346 0.666016 13.6038 0.666016 9.0013C0.666016 4.3988 4.39685 0.667969 8.99935 0.667969ZM8.99935 1.91797C7.12073 1.91797 5.31906 2.66425 3.99068 3.99263C2.66229 5.32101 1.91602 7.12268 1.91602 9.0013C1.91602 10.8799 2.66229 12.6816 3.99068 14.01C5.31906 15.3384 7.12073 16.0846 8.99935 16.0846C10.878 16.0846 12.6796 15.3384 14.008 14.01C15.3364 12.6816 16.0827 10.8799 16.0827 9.0013C16.0827 7.12268 15.3364 5.32101 14.008 3.99263C12.6796 2.66425 10.878 1.91797 8.99935 1.91797ZM8.99935 4.83464C9.16511 4.83464 9.32408 4.90048 9.44129 5.01769C9.5585 5.1349 9.62435 5.29388 9.62435 5.45964V8.3763H12.541C12.7068 8.3763 12.8657 8.44215 12.983 8.55936C13.1002 8.67657 13.166 8.83554 13.166 9.0013C13.166 9.16706 13.1002 9.32603 12.983 9.44324C12.8657 9.56045 12.7068 9.6263 12.541 9.6263H9.62435V12.543C9.62435 12.7087 9.5585 12.8677 9.44129 12.9849C9.32408 13.1021 9.16511 13.168 8.99935 13.168C8.83359 13.168 8.67462 13.1021 8.55741 12.9849C8.4402 12.8677 8.37435 12.7087 8.37435 12.543V9.6263H5.45768C5.29192 9.6263 5.13295 9.56045 5.01574 9.44324C4.89853 9.32603 4.83268 9.16706 4.83268 9.0013C4.83268 8.83554 4.89853 8.67657 5.01574 8.55936C5.13295 8.44215 5.29192 8.3763 5.45768 8.3763H8.37435V5.45964C8.37435 5.29388 8.4402 5.1349 8.55741 5.01769C8.67462 4.90048 8.83359 4.83464 8.99935 4.83464Z" fill="white"/>
</svg>
