<svg width="24" height="24" viewBox="0 0 24 24" fill="none" xmlns="http://www.w3.org/2000/svg">
<path d="M21.5478 11.0571C19.6962 7.44434 16.0306 5 11.8333 5C7.63606 5 3.96938 7.44604 2.1188 11.0574C2.04069 11.2119 2 11.3826 2 11.5557C2 11.7289 2.04069 11.8996 2.1188 12.0541C3.97041 15.6668 7.63606 18.1111 11.8333 18.1111C16.0306 18.1111 19.6973 15.6651 21.5478 12.0537C21.626 11.8992 21.6666 11.7285 21.6666 11.5554C21.6666 11.3823 21.626 11.2116 21.5478 11.0571V11.0571ZM11.8333 16.4722C10.8609 16.4722 9.91031 16.1839 9.10177 15.6436C8.29323 15.1034 7.66304 14.3355 7.29091 13.4371C6.91878 12.5387 6.82141 11.5501 7.01113 10.5964C7.20084 9.64263 7.6691 8.76656 8.35671 8.07895C9.04432 7.39134 9.92039 6.92307 10.8741 6.73336C11.8279 6.54365 12.8164 6.64102 13.7149 7.01315C14.6133 7.38528 15.3811 8.01546 15.9214 8.82401C16.4616 9.63255 16.75 10.5831 16.75 11.5556C16.7503 12.2013 16.6234 12.8408 16.3764 13.4375C16.1294 14.0341 15.7673 14.5763 15.3106 15.0329C14.854 15.4895 14.3119 15.8516 13.7152 16.0986C13.1186 16.3456 12.4791 16.4725 11.8333 16.4722V16.4722ZM11.8333 8.27778C11.5408 8.28187 11.2501 8.3254 10.9692 8.40719C11.2007 8.72188 11.3118 9.10914 11.2824 9.49874C11.2529 9.88833 11.0848 10.2545 10.8085 10.5307C10.5322 10.807 10.1661 10.9751 9.7765 11.0046C9.3869 11.0341 8.99964 10.923 8.68495 10.6914C8.50575 11.3516 8.5381 12.0514 8.77744 12.6922C9.01677 13.3331 9.45105 13.8827 10.0191 14.2638C10.5872 14.6449 11.2605 14.8383 11.9443 14.8167C12.628 14.7951 13.2878 14.5596 13.8307 14.1434C14.3736 13.7272 14.7723 13.1512 14.9707 12.4966C15.1691 11.8419 15.1572 11.1415 14.9367 10.4939C14.7162 9.84633 14.2982 9.28421 13.7415 8.88667C13.1848 8.48912 12.5174 8.27617 11.8333 8.27778V8.27778Z" fill="#1A48E9"/>
</svg>
