<svg width="52" height="52" viewBox="0 0 52 52" fill="none" xmlns="http://www.w3.org/2000/svg">
<rect width="52" height="52" rx="26" fill="#E13F3F"/>
<g clip-path="url(#clip0_1276_75256)">
<path d="M30.0837 35.4688C30.0837 37.9673 28.0276 40 25.5003 40C22.9731 40 20.917 37.9673 20.917 35.4688C20.917 32.9702 22.9731 30.9375 25.5003 30.9375C28.0276 30.9375 30.0837 32.9702 30.0837 35.4688ZM21.4475 12.4273L22.2267 27.8335C22.2633 28.557 22.8673 29.125 23.6 29.125H27.4007C28.1334 29.125 28.7374 28.557 28.774 27.8335L29.5531 12.4273C29.5924 11.6508 28.9662 11 28.1799 11H22.8208C22.0344 11 21.4083 11.6508 21.4475 12.4273Z" fill="white"/>
</g>
<defs>
<clipPath id="clip0_1276_75256">
<rect width="11" height="29" fill="white" transform="translate(20 11)"/>
</clipPath>
</defs>
</svg>
