<svg width="80" height="80" viewBox="0 0 80 80" fill="none" xmlns="http://www.w3.org/2000/svg">
<path d="M62.5 5H17.5C14.7386 5 12.5 7.23858 12.5 10V45C12.5 47.7614 14.7386 50 17.5 50H62.5C65.2614 50 67.5 47.7614 67.5 45V10C67.5 7.23858 65.2614 5 62.5 5Z" stroke="#1A48E9" stroke-width="2.5" stroke-linecap="round" stroke-linejoin="round"/>
<path d="M72.494 75H7.50736C6.65489 75.0003 5.81651 74.7826 5.07187 74.3676C4.32723 73.9526 3.70105 73.3541 3.25282 72.629C2.8046 71.9039 2.5492 71.0762 2.51091 70.2246C2.47261 69.373 2.65269 68.5258 3.03402 67.7633L9.15402 55.5267C9.98465 53.866 11.2612 52.4693 12.8408 51.4932C14.4204 50.5171 16.2405 50.0001 18.0974 50H61.904C63.7609 50.0001 65.581 50.5171 67.1606 51.4932C68.7401 52.4693 70.0167 53.866 70.8474 55.5267L76.9674 67.7633C77.3487 68.5258 77.5288 69.373 77.4905 70.2246C77.4522 71.0762 77.1968 71.9039 76.7486 72.629C76.3003 73.3541 75.6741 73.9526 74.9295 74.3676C74.1849 74.7826 73.3465 75.0003 72.494 75Z" stroke="#1A48E9" stroke-width="2.5" stroke-linecap="round" stroke-linejoin="round"/>
<path d="M32.5 65H47.5" stroke="#1A48E9" stroke-width="2.5" stroke-linecap="round" stroke-linejoin="round"/>
<path d="M52.5 15H27.5C24.7386 15 22.5 17.2386 22.5 20V35C22.5 37.7614 24.7386 40 27.5 40H52.5C55.2614 40 57.5 37.7614 57.5 35V20C57.5 17.2386 55.2614 15 52.5 15Z" stroke="#1A9AFF" stroke-width="2.5" stroke-linecap="round" stroke-linejoin="round"/>
<path d="M23.7676 16.6758L40.0009 29.9991L56.2309 16.6791" stroke="#1A9AFF" stroke-width="2.5" stroke-linecap="round" stroke-linejoin="round"/>
</svg>
