<svg width="16" height="16" viewBox="0 0 16 16" fill="none" xmlns="http://www.w3.org/2000/svg">
<path d="M6.66784 12.6653C6.51207 12.6656 6.36111 12.6114 6.24117 12.512C6.17367 12.456 6.11787 12.3873 6.07697 12.3097C6.03606 12.2322 6.01087 12.1473 6.00282 12.06C5.99477 11.9727 6.00402 11.8846 6.03005 11.8009C6.05608 11.7171 6.09837 11.6394 6.15451 11.572L9.14117 7.99866L6.26117 4.41866C6.2058 4.35047 6.16444 4.272 6.13949 4.18778C6.11453 4.10355 6.10647 4.01522 6.11576 3.92787C6.12506 3.84052 6.15152 3.75586 6.19364 3.67877C6.23575 3.60168 6.29269 3.53367 6.36117 3.47866C6.43015 3.41797 6.51093 3.37219 6.59844 3.3442C6.68594 3.3162 6.77829 3.3066 6.86969 3.31599C6.96109 3.32538 7.04955 3.35356 7.12954 3.39876C7.20953 3.44396 7.27931 3.50521 7.33451 3.57866L10.5545 7.57866C10.6526 7.69795 10.7062 7.84758 10.7062 8.00199C10.7062 8.15641 10.6526 8.30604 10.5545 8.42533L7.22117 12.4253C7.1543 12.506 7.06934 12.5698 6.9732 12.6115C6.87706 12.6532 6.77244 12.6716 6.66784 12.6653Z" fill="#434547"/>
<path d="M10.6678 12.6653C10.5121 12.6656 10.3611 12.6114 10.2412 12.512C10.1737 12.456 10.1179 12.3873 10.077 12.3097C10.0361 12.2322 10.0109 12.1473 10.0028 12.06C9.99477 11.9727 10.004 11.8846 10.03 11.8009C10.0561 11.7171 10.0984 11.6394 10.1545 11.572L13.1412 7.99866L10.2612 4.41866C10.2058 4.35047 10.1644 4.272 10.1395 4.18778C10.1145 4.10355 10.1065 4.01522 10.1158 3.92787C10.1251 3.84052 10.1515 3.75586 10.1936 3.67877C10.2358 3.60168 10.2927 3.53367 10.3612 3.47866C10.4302 3.41797 10.5109 3.37219 10.5984 3.3442C10.6859 3.3162 10.7783 3.3066 10.8697 3.31599C10.9611 3.32538 11.0496 3.35356 11.1295 3.39876C11.2095 3.44396 11.2793 3.50521 11.3345 3.57866L14.5545 7.57866C14.6526 7.69795 14.7062 7.84758 14.7062 8.00199C14.7062 8.15641 14.6526 8.30604 14.5545 8.42533L11.2212 12.4253C11.1543 12.506 11.0693 12.5698 10.9732 12.6115C10.8771 12.6532 10.7724 12.6716 10.6678 12.6653Z" fill="#434547"/>
</svg>
