<svg width="24" height="24" viewBox="0 0 24 24" fill="none" xmlns="http://www.w3.org/2000/svg">
<path d="M22.4768 8.05946C22.4007 7.95638 22.3015 7.87263 22.1871 7.81493C22.0727 7.75723 21.9463 7.72721 21.8182 7.72728H7.09091C6.9159 7.72724 6.74548 7.78333 6.6047 7.88729C6.46392 7.99126 6.36018 8.13763 6.30873 8.30491L4.63636 13.7401V3.63637H9.10773L10.4986 5.72682C10.5736 5.83919 10.6752 5.93125 10.7944 5.99478C10.9136 6.05831 11.0467 6.09134 11.1818 6.09091H17.7273V6.90909H19.3636V5.27273C19.3636 5.05574 19.2774 4.84763 19.124 4.69419C18.9706 4.54075 18.7624 4.45455 18.5454 4.45455H11.6195L10.2286 2.36409C10.1537 2.25173 10.052 2.15967 9.93283 2.09614C9.81362 2.03261 9.68053 1.99958 9.54545 2H3.81818C3.60119 2 3.39308 2.08621 3.23964 2.23964C3.0862 2.39308 3 2.60119 3 2.81819V19.1818H3.02045C3.0132 19.3546 3.06199 19.5251 3.15955 19.6678C3.23565 19.7709 3.3349 19.8547 3.4493 19.9123C3.5637 19.97 3.69006 20.0001 3.81818 20H18.5454C18.7205 20 18.8909 19.9439 19.0317 19.84C19.1724 19.736 19.2762 19.5896 19.3276 19.4224L22.6004 8.786C22.638 8.66368 22.6465 8.53422 22.625 8.40803C22.6036 8.28185 22.5528 8.16246 22.4768 8.05946Z" fill="#1A48E9"/>
</svg>
