<svg width="24" height="24" viewBox="0 0 24 24" fill="none" xmlns="http://www.w3.org/2000/svg">
<path d="M13.6 2H4.8C4.58783 2 4.38434 2.08341 4.23431 2.23187C4.08429 2.38034 4 2.5817 4 2.79167V20.2083C4 20.4183 4.08429 20.6197 4.23431 20.7681C4.38434 20.9166 4.58783 21 4.8 21H19.2C19.4122 21 19.6157 20.9166 19.7657 20.7681C19.9157 20.6197 20 20.4183 20 20.2083V8.33333H14.4C14.1878 8.33333 13.9843 8.24993 13.8343 8.10146C13.6843 7.95299 13.6 7.75163 13.6 7.54167V2ZM6.8 15.4583H17.2C17.3061 15.4583 17.4078 15.5 17.4828 15.5743C17.5579 15.6485 17.6 15.7492 17.6 15.8542V16.6458C17.6 16.7508 17.5579 16.8515 17.4828 16.9257C17.4078 17 17.3061 17.0417 17.2 17.0417H6.8C6.69391 17.0417 6.59217 17 6.51716 16.9257C6.44214 16.8515 6.4 16.7508 6.4 16.6458V15.8542C6.4 15.7492 6.44214 15.6485 6.51716 15.5743C6.59217 15.5 6.69391 15.4583 6.8 15.4583V15.4583ZM6.8 11.5H17.2C17.3061 11.5 17.4078 11.5417 17.4828 11.6159C17.5579 11.6902 17.6 11.7909 17.6 11.8958V12.6875C17.6 12.7925 17.5579 12.8932 17.4828 12.9674C17.4078 13.0416 17.3061 13.0833 17.2 13.0833H6.8C6.69391 13.0833 6.59217 13.0416 6.51716 12.9674C6.44214 12.8932 6.4 12.7925 6.4 12.6875V11.8958C6.4 11.7909 6.44214 11.6902 6.51716 11.6159C6.59217 11.5417 6.69391 11.5 6.8 11.5V11.5ZM10.8 9.125H6.8C6.69391 9.125 6.59217 9.0833 6.51716 9.00906C6.44214 8.93483 6.4 8.83415 6.4 8.72917V7.9375C6.4 7.83252 6.44214 7.73184 6.51716 7.6576C6.59217 7.58337 6.69391 7.54167 6.8 7.54167H10.8C10.9061 7.54167 11.0078 7.58337 11.0828 7.6576C11.1579 7.73184 11.2 7.83252 11.2 7.9375V8.72917C11.2 8.83415 11.1579 8.93483 11.0828 9.00906C11.0078 9.0833 10.9061 9.125 10.8 9.125Z" fill="#1A48E9"/>
<path d="M19 7H15V3L19 7Z" fill="#1A48E9"/>
</svg>
