<svg width="20" height="16" viewBox="0 0 20 16" fill="none" xmlns="http://www.w3.org/2000/svg">
<path d="M8.34205 11.1996C8.34205 11.3564 8.18452 11.4564 8.04893 11.4008L1.06185 6.38376C1.04042 6.36837 1.01832 6.35395 0.995614 6.34053C0.963104 6.32132 0.936163 6.29397 0.917449 6.26117C0.898733 6.22837 0.888891 6.19126 0.888891 6.1535C0.888891 6.11574 0.898734 6.07863 0.917449 6.04583C0.936163 6.01303 0.963104 5.98568 0.995614 5.96647C1.0184 5.95301 1.04056 5.93854 1.06205 5.92309L8.04373 0.906925C8.0703 0.895225 8.09907 0.889053 8.12828 0.888894C8.16579 0.888691 8.20269 0.898417 8.23524 0.917086C8.26778 0.935753 8.2948 0.9627 8.31356 0.995188C8.33232 1.02768 8.34215 1.06455 8.34205 1.10207V1.10435V3.07509C8.34205 3.56601 8.74002 3.96398 9.23095 3.96398C10.3694 3.96398 12.4283 3.97419 14.3963 5.34322C15.8858 6.37939 17.4279 8.27299 18.4034 11.8032C16.7821 10.2153 14.9984 9.33595 13.432 8.85922C12.2432 8.49739 11.1837 8.36801 10.4179 8.32907C10.0343 8.30957 9.72237 8.31265 9.50203 8.32106C9.39179 8.32527 9.30427 8.33082 9.24195 8.33558C9.21079 8.33795 9.1859 8.34014 9.16761 8.34186L9.14515 8.34406L9.13769 8.34485L9.13492 8.34515L9.13377 8.34527C9.13326 8.34533 9.13278 8.34538 9.23095 9.22883L9.13278 8.34538C8.68262 8.3954 8.34205 8.7759 8.34205 9.22883V11.1996Z" stroke="white" stroke-width="1.77778" stroke-linejoin="round"/>
</svg>
