<svg width="19" height="10" viewBox="0 0 19 10" fill="none" xmlns="http://www.w3.org/2000/svg">
<path d="M10.455 0.454942C10.6663 0.253776 10.9475 0.142563 11.2392 0.14477C11.531 0.146978 11.8104 0.262433 12.0187 0.466774C12.2269 0.671115 12.3476 0.948359 12.3553 1.24C12.363 1.53165 12.2571 1.81488 12.06 2.02994L6.07499 9.51494C5.97208 9.62579 5.84787 9.71475 5.70979 9.77649C5.57171 9.83824 5.4226 9.87151 5.27137 9.87431C5.12014 9.87711 4.9699 9.84938 4.82963 9.79279C4.68936 9.7362 4.56194 9.6519 4.45499 9.54494L0.485992 5.57594C0.375462 5.47295 0.286808 5.34875 0.225321 5.21075C0.163833 5.07275 0.13077 4.92378 0.128105 4.77273C0.12544 4.62167 0.153227 4.47163 0.209808 4.33155C0.26639 4.19146 0.350606 4.06421 0.457435 3.95739C0.564263 3.85056 0.691513 3.76634 0.831596 3.70976C0.971678 3.65318 1.12172 3.62539 1.27278 3.62806C1.42383 3.63072 1.5728 3.66378 1.7108 3.72527C1.8488 3.78676 1.973 3.87541 2.07599 3.98594L5.21699 7.12544L10.425 0.487943C10.4343 0.476362 10.4444 0.465342 10.455 0.454942ZM9.07499 8.16494L10.455 9.54494C10.5619 9.65167 10.6892 9.73577 10.8294 9.79222C10.9695 9.84868 11.1196 9.87633 11.2706 9.87353C11.4217 9.87073 11.5706 9.83754 11.7085 9.77593C11.8465 9.71432 11.9706 9.62556 12.0735 9.51494L18.0615 2.02994C18.1691 1.92374 18.2541 1.79696 18.3116 1.65716C18.3691 1.51735 18.3978 1.3674 18.396 1.21625C18.3943 1.06511 18.3621 0.915864 18.3013 0.77744C18.2406 0.639015 18.1526 0.514247 18.0426 0.410586C17.9326 0.306926 17.8028 0.226498 17.661 0.174106C17.5192 0.121715 17.3684 0.0984341 17.2174 0.105654C17.0664 0.112875 16.9184 0.150448 16.7823 0.216131C16.6461 0.281813 16.5246 0.374257 16.425 0.487943L11.2155 7.12544L10.488 6.39644L9.07349 8.16494H9.07499Z" fill="white"/>
</svg>
