<svg width="32" height="32" viewBox="0 0 32 32" fill="none" xmlns="http://www.w3.org/2000/svg">
<path d="M14.9672 11.3665C15.1174 11.2163 15.2018 11.0126 15.2018 10.8001C15.2018 10.5877 15.1174 10.384 14.9672 10.2337C14.817 10.0835 14.6132 9.99913 14.4008 9.99913C14.1883 9.99913 13.9846 10.0835 13.8344 10.2337L11.5752 12.4929L10.94 11.9137C10.7822 11.7788 10.5781 11.7106 10.3708 11.7234C10.1636 11.7362 9.96949 11.8291 9.82948 11.9824C9.68946 12.1357 9.61454 12.3374 9.62053 12.545C9.62652 12.7525 9.71296 12.9496 9.86158 13.0945L11.0616 14.1905C11.2136 14.329 11.4131 14.4035 11.6187 14.3988C11.8243 14.394 12.0201 14.3103 12.1656 14.1649L14.9656 11.3649L14.9672 11.3665ZM14.9672 18.2337C15.0417 18.3081 15.1008 18.3963 15.1411 18.4935C15.1815 18.5907 15.2022 18.6949 15.2022 18.8001C15.2022 18.9054 15.1815 19.0096 15.1411 19.1068C15.1008 19.2039 15.0417 19.2922 14.9672 19.3665L12.1672 22.1665C12.0214 22.3121 11.8251 22.3959 11.6192 22.4003C11.4132 22.4048 11.2135 22.3297 11.0616 22.1905L9.86158 21.0945C9.71296 20.9496 9.62652 20.7525 9.62053 20.545C9.61454 20.3374 9.68946 20.1357 9.82948 19.9824C9.96949 19.8291 10.1636 19.7362 10.3708 19.7234C10.5781 19.7106 10.7822 19.7788 10.94 19.9137L11.5752 20.4945L13.8344 18.2337C13.9087 18.1592 13.997 18.1001 14.0942 18.0598C14.1914 18.0195 14.2956 17.9987 14.4008 17.9987C14.506 17.9987 14.6102 18.0195 14.7074 18.0598C14.8046 18.1001 14.8929 18.1592 14.9672 18.2337ZM17.6008 19.2001C17.3886 19.2001 17.1851 19.2844 17.0351 19.4345C16.8851 19.5845 16.8008 19.788 16.8008 20.0001C16.8008 20.2123 16.8851 20.4158 17.0351 20.5658C17.1851 20.7159 17.3886 20.8001 17.6008 20.8001H20.2728C20.0968 20.2993 20.0008 19.7601 20.0008 19.2001H17.6008ZM9.60078 25.6001H17.6808C17.628 25.8593 17.6008 26.1265 17.6008 26.4001C17.6008 26.6673 17.6216 26.9345 17.6616 27.2001H9.60078C8.32774 27.2001 7.10684 26.6944 6.20667 25.7943C5.30649 24.8941 4.80078 23.6732 4.80078 22.4001V9.60014C4.80078 8.3271 5.30649 7.1062 6.20667 6.20603C7.10684 5.30585 8.32774 4.80014 9.60078 4.80014H22.4008C23.6738 4.80014 24.8947 5.30585 25.7949 6.20603C26.6951 7.1062 27.2008 8.3271 27.2008 9.60014V15.0417C26.7063 14.7554 26.1643 14.5603 25.6008 14.4657V9.60014C25.6008 8.75145 25.2636 7.93752 24.6635 7.3374C24.0634 6.73728 23.2495 6.40014 22.4008 6.40014H9.60078C8.75209 6.40014 7.93816 6.73728 7.33804 7.3374C6.73792 7.93752 6.40078 8.75145 6.40078 9.60014V22.4001C6.40078 23.2488 6.73792 24.0628 7.33804 24.6629C7.93816 25.263 8.75209 25.6001 9.60078 25.6001ZM16.8008 12.0001C16.8008 11.788 16.8851 11.5845 17.0351 11.4345C17.1851 11.2844 17.3886 11.2001 17.6008 11.2001H21.6008C21.813 11.2001 22.0164 11.2844 22.1665 11.4345C22.3165 11.5845 22.4008 11.788 22.4008 12.0001C22.4008 12.2123 22.3165 12.4158 22.1665 12.5658C22.0164 12.7159 21.813 12.8001 21.6008 12.8001H17.6008C17.3886 12.8001 17.1851 12.7159 17.0351 12.5658C16.8851 12.4158 16.8008 12.2123 16.8008 12.0001ZM28.0008 19.2001C28.0008 20.0488 27.6636 20.8628 27.0635 21.4629C26.4634 22.063 25.6495 22.4001 24.8008 22.4001C23.9521 22.4001 23.1382 22.063 22.538 21.4629C21.9379 20.8628 21.6008 20.0488 21.6008 19.2001C21.6008 18.3514 21.9379 17.5375 22.538 16.9374C23.1382 16.3373 23.9521 16.0001 24.8008 16.0001C25.6495 16.0001 26.4634 16.3373 27.0635 16.9374C27.6636 17.5375 28.0008 18.3514 28.0008 19.2001ZM30.4008 26.4001C30.4008 28.3921 28.8008 30.4001 24.8008 30.4001C20.8008 30.4001 19.2008 28.4001 19.2008 26.4001C19.2008 25.7636 19.4536 25.1532 19.9037 24.7031C20.3538 24.253 20.9643 24.0001 21.6008 24.0001H28.0008C28.6373 24.0001 29.2478 24.253 29.6978 24.7031C30.1479 25.1532 30.4008 25.7636 30.4008 26.4001Z" fill="#888888"/>
</svg>
