<svg width="24" height="24" viewBox="0 0 24 24" fill="none" xmlns="http://www.w3.org/2000/svg">
<g clip-path="url(#clip0_1872_133225)">
<path d="M13.6536 16.2933C13.6536 17.4464 12.7047 18.3846 11.5382 18.3846C10.3718 18.3846 9.42285 17.4464 9.42285 16.2933C9.42285 15.1401 10.3718 14.2019 11.5382 14.2019C12.7047 14.2019 13.6536 15.1401 13.6536 16.2933ZM9.66771 5.65875L10.0273 12.7693C10.0442 13.1032 10.323 13.3654 10.6611 13.3654H12.4153C12.7535 13.3654 13.0323 13.1032 13.0491 12.7693L13.4088 5.65875C13.4269 5.30037 13.1379 5 12.7749 5H10.3015C9.93858 5 9.64959 5.30037 9.66771 5.65875Z" fill="#E62614"/>
</g>
<defs>
<clipPath id="clip0_1872_133225">
<rect width="5.07692" height="13.3846" fill="white" transform="translate(9 5)"/>
</clipPath>
</defs>
</svg>
