<svg width="32" height="32" viewBox="0 0 32 32" fill="none" xmlns="http://www.w3.org/2000/svg">
<path d="M16 4C13.6266 4 11.3066 4.70379 9.33316 6.02236C7.35977 7.34094 5.8217 9.21509 4.91345 11.4078C4.0052 13.6005 3.76756 16.0133 4.23058 18.3411C4.6936 20.6689 5.83649 22.8071 7.51472 24.4853C9.19295 26.1635 11.3312 27.3064 13.6589 27.7694C15.9867 28.2324 18.3995 27.9948 20.5922 27.0866C22.7849 26.1783 24.6591 24.6402 25.9776 22.6668C27.2962 20.6935 28 18.3734 28 16C28 14.4241 27.6896 12.8637 27.0866 11.4078C26.4835 9.95189 25.5996 8.62902 24.4853 7.51472C23.371 6.40042 22.0481 5.5165 20.5922 4.91345C19.1363 4.31039 17.5759 4 16 4ZM16 25.6C14.1013 25.6 12.2452 25.037 10.6665 23.9821C9.08782 22.9272 7.85736 21.4279 7.13076 19.6738C6.40416 17.9196 6.21405 15.9894 6.58447 14.1271C6.95489 12.2649 7.8692 10.5544 9.21178 9.21178C10.5544 7.86919 12.2649 6.95488 14.1271 6.58446C15.9894 6.21404 17.9196 6.40416 19.6738 7.13076C21.4279 7.85736 22.9273 9.08781 23.9821 10.6665C25.037 12.2452 25.6 14.1013 25.6 16C25.6 18.5461 24.5886 20.9879 22.7882 22.7882C20.9879 24.5886 18.5461 25.6 16 25.6Z" fill="#E62614"/>
<path d="M16.0008 22.0003C16.6635 22.0003 17.2008 21.463 17.2008 20.8003C17.2008 20.1375 16.6635 19.6003 16.0008 19.6003C15.338 19.6003 14.8008 20.1375 14.8008 20.8003C14.8008 21.463 15.338 22.0003 16.0008 22.0003Z" fill="#E62614"/>
<path d="M16.0008 10C15.6825 10 15.3773 10.1264 15.1523 10.3515C14.9272 10.5765 14.8008 10.8817 14.8008 11.2V17.2C14.8008 17.5183 14.9272 17.8235 15.1523 18.0485C15.3773 18.2736 15.6825 18.4 16.0008 18.4C16.319 18.4 16.6243 18.2736 16.8493 18.0485C17.0744 17.8235 17.2008 17.5183 17.2008 17.2V11.2C17.2008 10.8817 17.0744 10.5765 16.8493 10.3515C16.6243 10.1264 16.319 10 16.0008 10Z" fill="#E62614"/>
</svg>
